{
  "accessors": [
    {
      "bufferView": 0,
      "componentType": 5126,
      "count": 9826,
      "max": [
        13.442270278930664,
        13.053322792053223,
        13.959554672241211
      ],
      "min": [
        -14.198699951171875,
        -13.05324935913086,
        -15.315400123596191
      ],
      "type": "VEC3"
    },
    {
      "bufferView": 1,
      "componentType": 5125,
      "count": 22166,
      "type": "SCALAR"
    },
    {
      "bufferView": 2,
      "componentType": 5126,
      "count": 9826,
      "type": "VEC3"
    },
    {
      "bufferView": 3,
      "componentType": 5126,
      "count": 9826,
      "type": "VEC4"
    },
    {
      "bufferView": 4,
      "componentType": 5126,
      "count": 9826,
      "type": "VEC2"
    },
    {
      "bufferView": 5,
      "componentType": 5126,
      "count": 9826,
      "max": [
        13.442270278930664,
        13.053322792053223,
        13.959554672241211
      ],
      "min": [
        -14.198699951171875,
        -13.05324935913086,
        -15.315400123596191
      ],
      "type": "VEC3"
    },
    {
      "bufferView": 6,
      "componentType": 5123,
      "count": 1290,
      "type": "SCALAR"
    },
    {
      "bufferView": 7,
      "componentType": 5126,
      "count": 9826,
      "type": "VEC3"
    },
    {
      "bufferView": 8,
      "componentType": 5126,
      "count": 9826,
      "type": "VEC4"
    },
    {
      "bufferView": 9,
      "componentType": 5126,
      "count": 9826,
      "type": "VEC2"
    },
    {
      "bufferView": 10,
      "componentType": 5126,
      "count": 9920,
      "max": [
        13.29437255859375,
        13.250789642333984,
        13.609578132629395
      ],
      "min": [
        -14.116399765014648,
        -13.258000373840332,
        -11.892000198364258
      ],
      "type": "VEC3"
    },
    {
      "bufferView": 11,
      "componentType": 5125,
      "count": 22629,
      "type": "SCALAR"
    },
    {
      "bufferView": 12,
      "componentType": 5126,
      "count": 9920,
      "type": "VEC3"
    },
    {
      "bufferView": 13,
      "componentType": 5126,
      "count": 9920,
      "type": "VEC4"
    },
    {
      "bufferView": 14,
      "componentType": 5126,
      "count": 9920,
      "type": "VEC2"
    },
    {
      "bufferView": 15,
      "componentType": 5126,
      "count": 9920,
      "max": [
        13.29437255859375,
        13.250789642333984,
        13.609578132629395
      ],
      "min": [
        -14.116399765014648,
        -13.258000373840332,
        -11.892000198364258
      ],
      "type": "VEC3"
    },
    {
      "bufferView": 16,
      "componentType": 5123,
      "count": 1029,
      "type": "SCALAR"
    },
    {
      "bufferView": 17,
      "componentType": 5126,
      "count": 9920,
      "type": "VEC3"
    },
    {
      "bufferView": 18,
      "componentType": 5126,
      "count": 9920,
      "type": "VEC4"
    },
    {
      "bufferView": 19,
      "componentType": 5126,
      "count": 9920,
      "type": "VEC2"
    },
    {
      "bufferView": 20,
      "componentType": 5126,
      "count": 9839,
      "max": [
        13.122063636779785,
        13.108187675476074,
        9.500913619995117
      ],
      "min": [
        -13.098247528076172,
        -13.089749336242676,
        -15.312451362609863
      ],
      "type": "VEC3"
    },
    {
      "bufferView": 21,
      "componentType": 5125,
      "count": 18025,
      "type": "SCALAR"
    },
    {
      "bufferView": 22,
      "componentType": 5126,
      "count": 9839,
      "type": "VEC3"
    },
    {
      "bufferView": 23,
      "componentType": 5126,
      "count": 9839,
      "type": "VEC4"
    },
    {
      "bufferView": 24,
      "componentType": 5126,
      "count": 9839,
      "type": "VEC2"
    },
    {
      "bufferView": 25,
      "componentType": 5126,
      "count": 9839,
      "max": [
        13.122063636779785,
        13.108187675476074,
        9.500913619995117
      ],
      "min": [
        -13.098247528076172,
        -13.089749336242676,
        -15.312451362609863
      ],
      "type": "VEC3"
    },
    {
      "bufferView": 26,
      "componentType": 5123,
      "count": 777,
      "type": "SCALAR"
    },
    {
      "bufferView": 27,
      "componentType": 5126,
      "count": 9839,
      "type": "VEC3"
    },
    {
      "bufferView": 28,
      "componentType": 5126,
      "count": 9839,
      "type": "VEC4"
    },
    {
      "bufferView": 29,
      "componentType": 5126,
      "count": 9839,
      "type": "VEC2"
    },
    {
      "bufferView": 30,
      "componentType": 5126,
      "count": 4504,
      "max": [
        11.48035717010498,
        12.836383819580078,
        7.744314193725586
      ],
      "min": [
        -14.122400283813477,
        -12.843600273132324,
        -15.312451362609863
      ],
      "type": "VEC3"
    },
    {
      "bufferView": 31,
      "componentType": 5125,
      "count": 7684,
      "type": "SCALAR"
    },
    {
      "bufferView": 32,
      "componentType": 5126,
      "count": 4504,
      "type": "VEC3"
    },
    {
      "bufferView": 33,
      "componentType": 5126,
      "count": 4504,
      "type": "VEC4"
    },
    {
      "bufferView": 34,
      "componentType": 5126,
      "count": 4504,
      "type": "VEC2"
    },
    {
      "bufferView": 35,
      "componentType": 5126,
      "count": 4504,
      "max": [
        11.48035717010498,
        12.836383819580078,
        7.744314193725586
      ],
      "min": [
        -14.122400283813477,
        -12.843600273132324,
        -15.312451362609863
      ],
      "type": "VEC3"
    },
    {
      "bufferView": 36,
      "componentType": 5123,
      "count": 519,
      "type": "SCALAR"
    },
    {
      "bufferView": 37,
      "componentType": 5126,
      "count": 4504,
      "type": "VEC3"
    },
    {
      "bufferView": 38,
      "componentType": 5126,
      "count": 4504,
      "type": "VEC4"
    },
    {
      "bufferView": 39,
      "componentType": 5126,
      "count": 4504,
      "type": "VEC2"
    }
  ],
  "asset": {
    "version": "2.0"
  },
  "bufferViews": [
    {
      "buffer": 0,
      "byteLength": 117912,
      "target": 34962
    },
    {
      "buffer": 1,
      "byteLength": 88664,
      "target": 34963
    },
    {
      "buffer": 2,
      "byteLength": 117912,
      "target": 34962
    },
    {
      "buffer": 3,
      "byteLength": 157216,
      "target": 34962
    },
    {
      "buffer": 4,
      "byteLength": 78608,
      "target": 34962
    },
    {
      "buffer": 0,
      "byteLength": 117912,
      "target": 34962
    },
    {
      "buffer": 5,
      "byteLength": 2580,
      "target": 34963
    },
    {
      "buffer": 2,
      "byteLength": 117912,
      "target": 34962
    },
    {
      "buffer": 3,
      "byteLength": 157216,
      "target": 34962
    },
    {
      "buffer": 4,
      "byteLength": 78608,
      "target": 34962
    },
    {
      "buffer": 6,
      "byteLength": 119040,
      "target": 34962
    },
    {
      "buffer": 7,
      "byteLength": 90516,
      "target": 34963
    },
    {
      "buffer": 8,
      "byteLength": 119040,
      "target": 34962
    },
    {
      "buffer": 9,
      "byteLength": 158720,
      "target": 34962
    },
    {
      "buffer": 10,
      "byteLength": 79360,
      "target": 34962
    },
    {
      "buffer": 6,
      "byteLength": 119040,
      "target": 34962
    },
    {
      "buffer": 11,
      "byteLength": 2058,
      "target": 34963
    },
    {
      "buffer": 8,
      "byteLength": 119040,
      "target": 34962
    },
    {
      "buffer": 9,
      "byteLength": 158720,
      "target": 34962
    },
    {
      "buffer": 10,
      "byteLength": 79360,
      "target": 34962
    },
    {
      "buffer": 12,
      "byteLength": 118068,
      "target": 34962
    },
    {
      "buffer": 13,
      "byteLength": 72100,
      "target": 34963
    },
    {
      "buffer": 14,
      "byteLength": 118068,
      "target": 34962
    },
    {
      "buffer": 15,
      "byteLength": 157424,
      "target": 34962
    },
    {
      "buffer": 16,
      "byteLength": 78712,
      "target": 34962
    },
    {
      "buffer": 12,
      "byteLength": 118068,
      "target": 34962
    },
    {
      "buffer": 17,
      "byteLength": 1554,
      "target": 34963
    },
    {
      "buffer": 14,
      "byteLength": 118068,
      "target": 34962
    },
    {
      "buffer": 15,
      "byteLength": 157424,
      "target": 34962
    },
    {
      "buffer": 16,
      "byteLength": 78712,
      "target": 34962
    },
    {
      "buffer": 18,
      "byteLength": 54048,
      "target": 34962
    },
    {
      "buffer": 19,
      "byteLength": 30736,
      "target": 34963
    },
    {
      "buffer": 20,
      "byteLength": 54048,
      "target": 34962
    },
    {
      "buffer": 21,
      "byteLength": 72064,
      "target": 34962
    },
    {
      "buffer": 22,
      "byteLength": 36032,
      "target": 34962
    },
    {
      "buffer": 18,
      "byteLength": 54048,
      "target": 34962
    },
    {
      "buffer": 23,
      "byteLength": 1038,
      "target": 34963
    },
    {
      "buffer": 20,
      "byteLength": 54048,
      "target": 34962
    },
    {
      "buffer": 21,
      "byteLength": 72064,
      "target": 34962
    },
    {
      "buffer": 22,
      "byteLength": 36032,
      "target": 34962
    }
  ],
  "buffers": [
    {
      "byteLength": 117912,
      "uri": "data:application/octet-stream;base64,"
    },
    {
      "byteLength": 88664,
      "uri": "data:application/octet-stream;base64,"
    },
    {
      "byteLength": 117912,
      "uri": "data:application/octet-stream;base64,"
    },
    {
      "byteLength": 157216,
      "uri": "data:application/octet-stream;base64,"
    },
    {
      "byteLength": 78608,
      "uri": "data:application/octet-stream;base64,"
    },
    {
      "byteLength": 2580,
      "uri": "data:application/octet-stream;base64,"
    },
    {
      "byteLength": 119040,
      "uri": "data:application/octet-stream;base64,"
    },
    {
      "byteLength": 90516,
      "uri": "data:application/octet-stream;base64,"
    },
    {
      "byteLength": 119040,
      "uri": "data:application/octet-stream;base64,"
    },
    {
      "byteLength": 158720,
      "uri": "data:application/octet-stream;base64,"
    },
    {
      "byteLength": 79360,
      "uri": "data:application/octet-stream;base64,"
    },
    {
      "byteLength": 2058,
      "uri": "data:application/octet-stream;base64,"
    },
    {
      "byteLength": 118068,
      "uri": "data:application/octet-stream;base64,"
    },
    {
      "byteLength": 72100,
      "uri": "data:application/octet-stream;base64,"
    },
    {
      "byteLength": 118068,
      "uri": "data:application/octet-stream;base64,"
    },
    {
      "byteLength": 157424,
      "uri": "data:application/octet-stream;base64,"
    },
    {
      "byteLength": 78712,
      "uri": "data:application/octet-stream;base64,"
    },
    {
      "byteLength": 1554,
      "uri": "data:application/octet-stream;base64,"
    },
    {
      "byteLength": 54048,
      "uri": "data:application/octet-stream;base64,"
    },
    {
      "byteLength": 30736,
      "uri": "data:application/octet-stream;base64,"
    },
    {
      "byteLength": 54048,
      "uri": "data:application/octet-stream;base64,"
    },
    {
      "byteLength": 72064,
      "uri": "data:application/octet-stream;base64,"
    },
    {
      "byteLength": 36032,
      "uri": "data:application/octet-stream;base64,"
    },
    {
      "byteLength": 1038,
      "uri": "data:application/octet-stream;base64,"
    }
  ],
  "materials": [
    {
      "doubleSided": true,
      "name": "initialShadingGroup",
      "pbrMetallicRoughness": {
        "baseColorFactor": [
          1.0,
          1.0,
          1.0,
          1.0
        ]
      }
    }
  ],
  "meshes": [
    {
      "primitives": [
        {
          "attributes": {
            "NORMAL": 2,
            "POSITION": 0,
            "TANGENT": 3,
            "TEXCOORD_0": 4
          },
          "indices": 1,
          "mode": 5
        },
        {
          "attributes": {
            "NORMAL": 7,
            "POSITION": 5,
            "TANGENT": 8,
            "TEXCOORD_0": 9
          },
          "indices": 6,
          "mode": 4
        }
      ]
    },
    {
      "primitives": [
        {
          "attributes": {
            "NORMAL": 12,
            "POSITION": 10,
            "TANGENT": 13,
            "TEXCOORD_0": 14
          },
          "indices": 11,
          "mode": 5
        },
        {
          "attributes": {
            "NORMAL": 17,
            "POSITION": 15,
            "TANGENT": 18,
            "TEXCOORD_0": 19
          },
          "indices": 16,
          "mode": 4
        }
      ]
    },
    {
      "primitives": [
        {
          "attributes": {
            "NORMAL": 22,
            "POSITION": 20,
            "TANGENT": 23,
            "TEXCOORD_0": 24
          },
          "indices": 21,
          "mode": 5
        },
        {
          "attributes": {
            "NORMAL": 27,
            "POSITION": 25,
            "TANGENT": 28,
            "TEXCOORD_0": 29
          },
          "indices": 26,
          "mode": 4
        }
      ]
    },
    {
      "primitives": [
        {
          "attributes": {
            "NORMAL": 32,
            "POSITION": 30,
            "TANGENT": 33,
            "TEXCOORD_0": 34
          },
          "indices": 31,
          "mode": 5
        },
        {
          "attributes": {
            "NORMAL": 37,
            "POSITION": 35,
            "TANGENT": 38,
            "TEXCOORD_0": 39
          },
          "indices": 36,
          "mode": 4
        }
      ]
    }
  ],
  "nodes": [
    {
      "mesh": 0,
      "name": "_gltfNode_0"
    },
    {
      "mesh": 1,
      "name": "_gltfNode_1"
    },
    {
      "mesh": 2,
      "name": "_gltfNode_2"
    },
    {
      "mesh": 3,
      "name": "_gltfNode_3"
    },
    {
      "children": [
        0,
        1,
        2,
        3
      ],
      "name": "GLTF Converted Scene",
      "rotation": [
        -0.7071067811865475,
        0.0,
        0.0,
        0.7071067811865476
      ],
      "scale": [
        1.0,
        1.0,
        1.0
      ],
      "translation": [
        0.0,
        0.0,
        0.0
      ]
    }
  ],
  "scene": 0,
  "scenes": [
    {
      "nodes": [
        4
      ]
    }
  ]
}
